<?xml version="1.0" ?><svg id="Layer_1" style="enable-background:new -239 241 32 32;" version="1.1" viewBox="-239 241 32 32" xml:space="preserve" xmlns="http://www.w3.org/2000/svg" xmlns:xlink="http://www.w3.org/1999/xlink"><style type="text/css">
	.st0{fill:#DC4D3F;}
	.st1{fill:#FFFFFF;}
</style><circle class="st0" cx="-223" cy="257" id="XMLID_1_" r="15.1"/><path class="st1" d="M-220.7,255.9L-220.7,255.9L-220.7,255.9l-6.3,0v2h3.8c-0.4,1.9-2.1,3.3-4.1,3.3c-2.3,0-4.2-1.9-4.2-4.2  c0-2.3,1.9-4.2,4.2-4.2c1.1,0,2.1,0.4,2.9,1.2l1.7-1.7c-1.2-1.2-2.9-1.9-4.6-1.9c-3.6,0-6.6,3-6.6,6.6c0,3.6,3,6.6,6.6,6.6  s6.6-3,6.6-6.6C-220.7,257-220.7,256.1-220.7,255.9z"/><polygon class="st1" points="-212.4,256.2 -214.6,256.2 -214.6,254 -216.7,254 -216.7,256.2 -218.9,256.2 -218.9,258.3   -216.7,258.3 -216.7,260.5 -214.6,260.5 -214.6,258.3 -212.4,258.3 "/></svg>